<svg fill="none" height="40" viewBox="0 0 40 40" width="40" xmlns="http://www.w3.org/2000/svg" xmlns:xlink="http://www.w3.org/1999/xlink"><linearGradient id="a"><stop offset="0" stop-color="#b7d179"/><stop offset="1" stop-color="#6fb656"/></linearGradient><linearGradient id="b" gradientUnits="userSpaceOnUse" x1="34" x2="34" xlink:href="#a" y1="9" y2="40"/><linearGradient id="c" gradientUnits="userSpaceOnUse" x1="6" x2="6" xlink:href="#a" y1="16" y2="40"/><linearGradient id="d" gradientUnits="userSpaceOnUse" x1="20" x2="20" xlink:href="#a" y1="0" y2="40"/><path d="m30 9h8c.5523 0 1 .33046 1 .7381v29.5238c0 .4076-.4477.7381-1 .7381h-8c-.5523 0-1-.3305-1-.7381v-29.5238c0-.40764.4477-.7381 1-.7381z" fill="url(#b)"/><path d="m2 16h8c.5523 0 1 .4133 1 .9231v22.1538c0 .5098-.4477.9231-1 .9231h-8c-.55229 0-1-.4133-1-.9231v-22.1538c0-.5098.44771-.9231 1-.9231z" fill="url(#c)"/><path d="m16 0h8c.5523 0 1 .526724 1 1.17647v37.64703c0 .6498-.4477 1.1765-1 1.1765h-8c-.5523 0-1-.5267-1-1.1765v-37.64703c0-.649746.4477-1.17647 1-1.17647z" fill="url(#d)"/></svg>