<svg fill="none" height="40" viewBox="0 0 40 40" width="40" xmlns="http://www.w3.org/2000/svg" xmlns:xlink="http://www.w3.org/1999/xlink"><linearGradient id="a" gradientUnits="userSpaceOnUse" x1="19.5" x2="19.5" y1="0" y2="40"><stop offset="0" stop-color="#b7d179"/><stop offset="1" stop-color="#6fb656"/></linearGradient><path d="m22.6571 16.7973c.0236-.256.1547-.4925.3592-.6471 2.3983-1.8188 3.9483-5.2215 3.9483-8.6683 0-4.12548-3.348-7.4819-7.463-7.4819-4.1161 0-7.4646 3.35642-7.4646 7.4819 0 3.4479 1.55 6.85 3.9494 8.6683.2317.1767.3612.4442.3654.7539.1259 1.5297-.2537 2.5894-2.5357 3.0378l-7.18142 1.4072c-2.40726.4731-4.63468 1.6212-4.63468 6.7823v11.8681h5.8391v-8.0786c0-.5072.41161-.9199.9176-.9199.506 0 .91761.4127.91761.9199v8.0791h5.64299c-.7388-.8989-1.1425-2.0175-1.1425-3.1798 0-2.7687 2.2462-5.0207 5.0074-5.0207h3.564l1.6098-12.1577c-1.4514-.7591-1.8337-1.4094-1.6989-2.8445zm-6.6471 20.0229c0 1.7537 1.423 3.1798 3.1722 3.1798h2.4781l.8421-6.3606h-3.3202c-1.7492 0-3.1722 1.4266-3.1722 3.1808zm10.1324-16.6901-2.6312 19.8699h9.5961l-2.7319-19.0399zm6.2234 1.219-.0828-.0157 2.6495 18.4674c1.2432-.4626 2.0675-1.6417 2.0675-2.9816v-8.6873c0-5.1616-2.2269-6.3091-4.6342-6.7828z" fill="url(#a)"/></svg>