<?xml version="1.0" encoding="utf-8"?>
<!-- Generator: Adobe Illustrator 26.0.3, SVG Export Plug-In . SVG Version: 6.00 Build 0)  -->
<svg version="1.1" id="Layer_1" xmlns="http://www.w3.org/2000/svg" xmlns:xlink="http://www.w3.org/1999/xlink" x="0px" y="0px"
	 viewBox="0 0 52 40" style="enable-background:new 0 0 52 40;" xml:space="preserve">
<style type="text/css">
	.st0{fill:url(#SVGID_1_);}
	.st1{fill:url(#SVGID_00000148657069495601679740000013454486417659006110_);}
	.st2{fill:url(#SVGID_00000026847734888163487400000014376960022385202350_);}
</style>
<linearGradient id="SVGID_1_" gradientUnits="userSpaceOnUse" x1="34.5401" y1="42" x2="34.5401" y2="5.523" gradientTransform="matrix(1 0 0 -1 0 42)">
	<stop  offset="0" style="stop-color:#B7D179"/>
	<stop  offset="1" style="stop-color:#6FB656"/>
</linearGradient>
<path class="st0" d="M17.6,2.1c0.1,13.9,4.7,22.4,8.5,27.3c2.3,2.9,5.1,5.3,8.3,7.1c2.5-1.3,16.8-9.8,17.1-34.2
	C46,0.8,40.3,0.1,34.6,0C28.8,0,23.1,0.7,17.6,2.1L17.6,2.1z M44.1,11.2l-10,11l-7-6l2.1-2.4l4.6,3.9l7.9-8.7L44.1,11.2z"/>
<linearGradient id="SVGID_00000057135792719954695300000008460387907607712430_" gradientUnits="userSpaceOnUse" x1="34.5401" y1="42" x2="34.5401" y2="5.523" gradientTransform="matrix(1 0 0 -1 0 42)">
	<stop  offset="0" style="stop-color:#B7D179"/>
	<stop  offset="1" style="stop-color:#6FB656"/>
</linearGradient>
<path style="fill:url(#SVGID_00000057135792719954695300000008460387907607712430_);" d="M17.6,2.1c0.1,13.9,4.7,22.4,8.5,27.3
	c2.3,2.9,5.1,5.3,8.3,7.1c2.5-1.3,16.8-9.8,17.1-34.2C46,0.8,40.3,0.1,34.6,0C28.8,0,23.1,0.7,17.6,2.1L17.6,2.1z M44.1,11.2l-10,11
	l-7-6l2.1-2.4l4.6,3.9l7.9-8.7L44.1,11.2z"/>
<linearGradient id="SVGID_00000001653502854303613380000003856012146273347514_" gradientUnits="userSpaceOnUse" x1="11.6046" y1="37.0284" x2="11.6046" y2="2" gradientTransform="matrix(1 0 0 -1 0 42)">
	<stop  offset="0" style="stop-color:#B7D179"/>
	<stop  offset="1" style="stop-color:#6FB656"/>
</linearGradient>
<path style="fill:url(#SVGID_00000001653502854303613380000003856012146273347514_);" d="M22,35.3c-0.4-0.7-0.6-1.4-0.7-2.2
	c0-0.8,0.1-1.5,0.4-2.2c0.5,0,1-0.1,1.4-0.2c-4.5-6-7.3-13.1-8.2-20.6c-0.5,0.3-1,0.6-1.4,0.9c-0.7-0.3-1.3-0.8-1.8-1.3
	c-0.5-0.6-0.8-1.2-1-2c-0.2-0.5-0.4-1-0.6-1.4C9.9,5.9,9.5,5.5,9,5.2C8.5,5,7.9,4.9,7.4,5C6.9,5.1,6.4,5.4,6,5.7
	C5.6,6.1,5.4,6.5,5.2,7C5.1,7.5,5.1,8.1,5.3,8.6s0.6,1,1,1.3c0.5,0.3,1,0.5,1.6,0.7c0.7,0.2,1.4,0.5,2,1c0.6,0.5,1,1.1,1.3,1.8
	c-0.3,0.5-0.7,1-0.9,1.5c-0.6-0.2-1.2-0.6-1.6-1.1c-0.2-0.2-0.4-0.5-0.7-0.7c-0.3-0.2-0.6-0.4-0.9-0.4c-0.3,0-0.7,0.1-1,0.2
	c-0.3,0.2-0.5,0.4-0.6,0.7c-0.1,0.3-0.2,0.6-0.2,0.9c0,0.3,0.2,0.7,0.4,0.9C6,15.8,6.3,16,6.6,16c0.3,0,0.7,0,1,0
	C8.3,16,9,16.1,9.5,16.5c-0.2,0.6-0.3,1.2-0.4,1.8c-0.7,0.3-1.4,0.4-2.2,0.3c-0.7-0.1-1.5-0.3-2.1-0.7c-0.5-0.2-0.9-0.4-1.4-0.6
	c-0.5-0.2-1.1-0.1-1.6,0s-1,0.5-1.3,1C0.2,18.8,0,19.3,0,19.8c0,0.5,0.1,1,0.3,1.5c0.3,0.5,0.7,0.9,1.2,1.1c0.5,0.2,1.1,0.3,1.6,0.2
	c0.6-0.1,1.1-0.3,1.6-0.6c0.7-0.4,1.4-0.6,2.1-0.7s1.5,0.1,2.2,0.4c0.1,0.6,0.2,1.1,0.4,1.6c-0.6,0.3-1.2,0.5-1.9,0.4
	c-0.3-0.1-0.7-0.1-1,0c-0.3,0.1-0.6,0.2-0.9,0.5c-0.2,0.2-0.4,0.6-0.4,0.9c0,0.3,0,0.6,0.2,0.9c0.1,0.3,0.3,0.5,0.6,0.7
	C6.3,26.9,6.7,27,7,27c0.3,0,0.7-0.2,0.9-0.4c0.2-0.2,0.5-0.4,0.7-0.7c0.4-0.5,1-0.9,1.6-1.1c0.3,0.5,0.6,1.1,0.9,1.5
	c-0.3,0.7-0.8,1.3-1.3,1.8s-1.2,0.8-2,1c-0.5,0.2-1,0.4-1.4,0.6c-0.5,0.3-0.9,0.7-1.1,1.2C5,31.5,5,32.1,5.1,32.6
	c0.1,0.5,0.4,1,0.7,1.3c0.3,0.4,0.8,0.7,1.3,0.8c0.5,0.1,1.1,0.1,1.6-0.1c0.5-0.2,1-0.6,1.3-1c0.3-0.5,0.6-1,0.7-1.6
	c0.2-0.7,0.6-1.4,1-2s1.1-1,1.8-1.3c0.5,0.3,0.9,0.6,1.4,0.9c-0.2,0.7-0.6,1.3-1.1,1.8c-0.3,0.2-0.5,0.5-0.7,0.8
	c-0.2,0.3-0.3,0.6-0.3,0.9c0,0.3,0.1,0.7,0.3,0.9c0.2,0.2,0.5,0.4,0.8,0.5c0.3,0.1,0.6,0.1,0.9,0.1c0.3-0.1,0.6-0.2,0.9-0.5
	c0.2-0.3,0.4-0.6,0.4-0.9c0-0.3,0-0.6,0-0.9c-0.1-0.7,0-1.4,0.4-2c0.6,0.2,1.2,0.3,1.7,0.4c0.3,0.7,0.4,1.5,0.4,2.2
	c-0.1,0.8-0.3,1.5-0.7,2.2c-0.2,0.5-0.4,0.9-0.6,1.4c-0.2,0.5-0.1,1.1,0.1,1.6c0.2,0.5,0.5,1,1,1.3c0.4,0.3,0.9,0.4,1.4,0.4
	c0.5,0,1-0.1,1.5-0.3c0.5-0.3,0.9-0.7,1.1-1.2c0.2-0.5,0.3-1.1,0.2-1.6C22.4,36.3,22.3,35.8,22,35.3L22,35.3z"/>
</svg>
