<svg xmlns="http://www.w3.org/2000/svg" viewBox="0 0 95.587 104.519"><defs><style>.a{fill:#d9f3f0;}.b{fill:#fff;}.c{fill:#1ec5a9;}.d{fill:#263b66;}.e{fill:#bcc0c4;}</style></defs><circle class="a" cx="48.217" cy="62.086" r="42.433"/><path class="b" d="M44.196 32.883s-10.718.506-15.26 8.955a124.833 124.833 0 0 1-9.33 14.756l6.18 4.413 10.467-9.96.88 15.385-9.582 14.073 6.62 16.823 6.13-4.414-.63-8.07.13-4.54 7.31-6.434 3.28.506 7.07 8.156-2.4 7.732 3.408 5.046 3.91 2.144 6.066-16.95L59.1 67.69l1.133-5.93-.02-10.28 6.953 7.63 4.666 1.39 2.52-2.14 1.51-2.4-7.95-12.99-8.2-8.7-6.18-1.14z"/><path class="c" d="M38.69 61.772v7.647l11.78 6.77 12.436-7.65v-6.87z"/><path class="d" d="M70.47 62.98h-.2a7.515 7.515 0 0 1-5.074-2.39l-2.855-3.326v1.238h-4.28v-12.8l10.27 11.984a3.327 3.327 0 0 0 2.07 1.01 2.688 2.688 0 0 0 1.98-.9l1.13-1.415c-1.72-2.8-5.86-9.51-8.09-12.53-.39-.52-.76-1.07-1.14-1.62-2.49-3.63-4.64-6.76-11.82-6.76h-4.33v-4.28h4.33c9.44 0 12.72 4.78 15.35 8.62.36.52.7 1.03 1.07 1.51 2.95 4.01 8.83 13.72 9.08 14.13l.77 1.28-3.23 4.04A7.034 7.034 0 0 1 70.49 63z"/><path class="d" d="M25.74 62.98a7.035 7.035 0 0 1-5.007-2.23l-.16-.178-3.08-3.853.774-1.28c.25-.41 6.13-10.12 9.08-14.13.36-.49.71-1 1.063-1.51 2.634-3.84 5.913-8.62 15.347-8.62h5.028v4.28h-5.028c-7.18 0-9.33 3.13-11.82 6.76-.38.55-.756 1.1-1.146 1.62-2.21 3.02-6.36 9.72-8.08 12.53l1.13 1.42a2.573 2.573 0 0 0 1.98.9A3.418 3.418 0 0 0 28 57.56L38.16 45.7v12.8h-4.28v-1.234l-2.747 3.2a7.622 7.622 0 0 1-5.186 2.507c-.07.006-.136.006-.203.006z"/><path class="b" d="M48.04 28.65c6.06 0 11.717-3.752 11.717-11.084v-4.21C59.757 6.023 54.1 2.14 48.04 2.14S36.324 6.02 36.324 13.355v4.21c0 7.332 5.662 11.083 11.718 11.083z"/><path class="d" d="M48.04 30.79c-6.673 0-13.857-4.14-13.857-13.224v-4.21C34.183 4.588 41.153 0 48.04 0s13.857 4.588 13.857 13.356v4.21c0 9.086-7.18 13.223-13.856 13.223zm0-26.51c-4.767 0-9.578 2.805-9.578 9.076v4.21c0 6.18 4.81 8.944 9.58 8.944s9.575-2.765 9.575-8.944v-4.21c0-6.27-4.81-9.077-9.576-9.077zm-.1 72.352L33.886 68.02l-.023-11.08H62.32v11.018zM38.16 65.62l9.8 6 10.082-6.082v-4.32H38.15z"/><path class="d" d="M32.875 99.91L25.12 80.17l9.7-12.79 3.41 2.59-8.252 10.872 5.296 13.477a18.868 18.868 0 0 0 2.5-2.12c.794-.8 1.356-1.71.115-4.79a29.044 29.044 0 0 1-1.45-4.45l-.22-1.06 8.29-9.22 3.18 2.86-6.79 7.55c.19.64.5 1.57.95 2.71 1.12 2.77 2 6.35-1.07 9.42-3.36 3.33-5.79 4.08-6.06 4.15zm30.222 0l-1.86-.522c-.267-.074-2.7-.824-6.052-4.146-3.074-3.072-2.186-6.65-1.07-9.422.46-1.14.767-2.07.957-2.717l-6.787-7.546 3.18-2.864 8.292 9.216-.22 1.05a28.8 28.8 0 0 1-1.452 4.45c-1.238 3.08-.677 3.99.123 4.79a18.6 18.6 0 0 0 2.493 2.1L66 80.83l-8.26-10.87 3.41-2.586 9.7 12.79z"/><path class="e" d="M72.376 17.537l7.095-5.572 2.52 3.205-7.09 5.573zm8.68 13.603l8.293-3.545 1.6 3.75-8.3 3.545zm4.854 15.39l8.93-1.277.577 4.038-8.93 1.28zm.23 20.168l.487-4.048 8.96 1.077-.486 4.048zM81.625 82.19l1.516-3.782 8.38 3.353L90 85.55zM13.598 15.17l2.518-3.206 7.096 5.573-2.517 3.206zM4.635 31.347l1.602-3.752 8.295 3.544-1.602 3.75zM.168 49.29l.577-4.037 8.93 1.277-.578 4.038zM0 63.725l8.96-1.076.487 4.04-8.96 1.07zm4.07 18.038l8.376-3.355 1.516 3.783-8.375 3.36z"/></svg>
