<svg xmlns="http://www.w3.org/2000/svg" viewBox="0 0 115.963 98.071"><defs><style>.a{fill:#d9f3f0;}.b{fill:#fff;}.c{fill:#bcc0c4;}.d{fill:#00b09a;}.e{fill:#1ec5a9;}.f{fill:#263b66;}</style></defs><circle class="a" cx="73.141" cy="42.432" r="42.433"/><path class="b" d="M55.784 17.193l-5.67 9.242s-11.335-5.052-22.918-1.11S1.562 43.07 2.054 59.215s14.17 33.39 30.93 35.61 29.82-8.75 33.64-14.54 8.38-19.1 5.67-29.327a41.592 41.592 0 0 0-9.243-16.882l5.92-8.133z"/><path class="c" d="M94.54 3.83h2.76v8.286h-2.76z"/><path class="c" d="M91.778 6.593h8.285v2.76h-8.285zm11.192 43.07h3.317v9.946h-3.316z"/><path class="c" d="M99.655 52.976h9.95v3.318h-9.95zm9.677-19.918a6.63 6.63 0 1 1 6.63-6.633 6.64 6.64 0 0 1-6.63 6.633zm0-9.947a3.315 3.315 0 1 0 3.316 3.32 3.32 3.32 0 0 0-3.316-3.31z"/><path class="b" d="M86.16 87.417h.008-.008zm-3.89-11.764v1.79l-1.67-.01c-3.423 0-6.11 3.092-6.11 7.244 0 3.952 2.68 7.06 6.1 7.073l1.68.007v3.493h31.114v-19.6z"/><path class="d" d="M89.254 91.07h.006-.006z"/><path class="e" d="M85.778 80.55v1.6l-1.5-.005c-3.06 0-5.46 2.764-5.46 6.476 0 3.54 2.4 6.31 5.452 6.32l1.5.01v3.12h27.824V80.55z"/><path class="f" d="M79.67 20.684a6.94 6.94 0 0 1-6.07-.364l-5.916-3.312a6.987 6.987 0 0 1-2.67-9.5 7.024 7.024 0 0 1 9.6-2.852l5.91 3.313a6.988 6.988 0 0 1 2.674 9.5 7.15 7.15 0 0 1-3.527 3.21zM70.185 8.27a2.647 2.647 0 0 0-1.31 1.163 2.826 2.826 0 0 0-.34 2.21 2.65 2.65 0 0 0 1.26 1.6l5.914 3.312a2.775 2.775 0 0 0 2.71-4.837l-5.91-3.312a2.66 2.66 0 0 0-2.33-.137zm17.013 35.69a7.013 7.013 0 0 1-7.422-6.383l-.562-6.75a6.978 6.978 0 0 1 6.382-7.537l.317-.027a7.013 7.013 0 0 1 7.418 6.377l.57 6.755a6.97 6.97 0 0 1-6.37 7.534zm-1-16.4l-.257.024a2.655 2.655 0 0 0-2.43 2.878l1.28 6.706c.12 1.442 1.46 2.535 3.55 2.395l.15 2.15-.81-2.106a2.043 2.043 0 0 0 1.666-.928 2.526 2.526 0 0 0 .44-1.94l-.65-6.75a2.766 2.766 0 0 0-2.923-2.43zm.332 42.363a7.01 7.01 0 0 1-6.364-7.435l.468-6.76a6.98 6.98 0 0 1 7.45-6.48l.32.02a7.015 7.015 0 0 1 6.36 7.434l-.47 6.76a6.97 6.97 0 0 1-7.446 6.48zm1.507-16.36l-.258-.016a2.662 2.662 0 0 0-2.85 2.477l.22 6.82c-.1 1.445 1.03 2.725 3.12 2.9l-.188 2.147-.46-2.2a2.07 2.07 0 0 0 1.8-.66 2.535 2.535 0 0 0 .737-1.85l.38-6.77a2.76 2.76 0 0 0-2.515-2.85z"/><path class="f" d="M86.74 29.718a2.15 2.15 0 0 1-2.357-1l-7.507-12.735a2.155 2.155 0 1 1 3.708-2.187l7.506 12.737a2.155 2.155 0 0 1-.764 2.95 2.18 2.18 0 0 1-.586.235zm.127 25.984a2.146 2.146 0 0 1-.98-1.714l-.653-14.77a2.153 2.153 0 1 1 4.3-.19l.65 14.774a2.152 2.152 0 0 1-3.32 1.9zm-8.593 23.58a2.137 2.137 0 0 1 0-1.974l6.8-13.127a2.153 2.153 0 1 1 3.823 1.98l-6.8 13.13a2.152 2.152 0 0 1-3.826 0zm7.003 8.563h.007-.007z"/><path class="f" d="M81.032 75.01v1.952l-1.82-.007c-3.738 0-6.666 3.37-6.666 7.9 0 4.308 2.923 7.7 6.654 7.713l1.832.007v3.812h33.945V75.01zm29.7 16.628H85.276v-3.794l-4.244-.017-1.818-.01c-1.406-.006-2.425-1.25-2.425-3.186a2.652 2.652 0 0 1 2.44-2.92l1.8.01 4.24.02v-1.97h25.46zM63.714 21.432a2.155 2.155 0 0 1-2.595-3.216l6.38-9.253a2.154 2.154 0 1 1 3.54 2.448l-6.386 9.26a2.15 2.15 0 0 1-.953.77z"/><path class="f" d="M49.008 31.37l7.913-11.025 8.6 6.213-7.95 11.084 3.42 2.51 10.45-14.547-15.47-11.187-10.38 14.446 3.426 2.507zM35.275 50.534h4.245a2.123 2.123 0 0 1 2.12 2.123h4.244a6.373 6.373 0 0 0-6.365-6.366v-4.24h-4.25v4.25a6.372 6.372 0 0 0-6.37 6.37v1.186a6.353 6.353 0 0 0 4.35 6.038l6.92 2.306a2.118 2.118 0 0 1 1.454 2.016V65.4a2.122 2.122 0 0 1-2.12 2.123h-4.24a2.123 2.123 0 0 1-2.124-2.126H28.9a6.372 6.372 0 0 0 6.365 6.366V76h4.25v-4.24a6.374 6.374 0 0 0 6.36-6.366V64.2a6.366 6.366 0 0 0-4.353-6.04l-6.93-2.31a2.115 2.115 0 0 1-1.448-2.01v-1.184a2.123 2.123 0 0 1 2.12-2.123z"/><path class="f" d="M64.24 32.872l-2.356 3.243a33.59 33.59 0 1 1-13.327-8.57l2.327-3.354a37.668 37.668 0 1 0 13.356 8.69z"/></svg>
