<svg xmlns="http://www.w3.org/2000/svg" viewBox="0 0 111.422 104.752"><defs><style>.a{fill:#bcc0c4;}.b{fill:#d9f3f0;}.c{fill:#fff;}.d{fill:#e9eaeb;}.e{fill:#263b66;}.f{fill:#1ec5a9;}</style></defs><path class="a" d="M55.847 104.75a52.5 52.5 0 0 1-47.74-30.8l2.97-1.343a49.133 49.133 0 0 0 85.735 6.878l2.718 1.8a52.3 52.3 0 0 1-43.683 23.466zM20.762 18.59l-2.366-2.24a52.376 52.376 0 0 1 75.05-1.005L91.14 17.65a49.116 49.116 0 0 0-70.378.945z"/><circle class="b" cx="56.41" cy="52.376" r="44.961"/><path class="c" d="M83.543 52.863c0-6.47-12.472-11.715-27.806-11.715s-27.81 5.246-27.81 11.715V76.08c1.737 5.232 14.145 10.417 29.482 10.417s24.75-7.164 26.05-10.417c0-2.78.073-20.44.073-23.22z"/><path class="d" d="M87.545 56.396c0-6.47-12.473-11.717-27.806-11.717s-27.81 5.24-27.81 11.71v23.22c1.73 5.23 14.14 10.413 29.48 10.413s24.76-7.16 26.06-10.417c-.01-2.774.07-20.44.07-23.215z"/><path class="e" d="M57.41 88.38c-15.356 0-29.09-5.144-31.268-11.708l-.1-.288v-23.52c0-7.752 12.762-13.6 29.69-13.6s29.687 5.85 29.687 13.6c0 1.39-.02 6.5-.04 11.618s-.037 10.214-.037 11.6v.36l-.136.34c-1.564 3.915-11.63 11.6-27.807 11.6zm-27.6-12.64c1.61 3.717 12.063 8.877 27.6 8.877 14.823 0 22.85-6.69 24.18-8.966 0-1.82.017-6.5.036-11.18.017-5.102.033-10.21.033-11.6 0-4.65-10.65-9.83-25.93-9.83s-25.92 5.178-25.92 9.83z"/><path class="e" d="M32.99 55.244h3.767V76.08H32.99z"/><path class="c" d="M59.506 27.87a8.984 8.984 0 0 0-5.365 0L1.89 42.957v5.436l52.51 16.04a7.7 7.7 0 0 0 4.6 0l50.544-16.04v-5.436z"/><path class="e" d="M111.422 41.56v8.18l-9.35 3.2-1.22-3.565 6.8-2.33v-2.688L58.96 29.675a7.1 7.1 0 0 0-4.255-.008L3.767 44.373V47l51.178 15.63a5.873 5.873 0 0 0 3.49 0L93.5 51.51l1.137 3.59-35.07 11.125a9.634 9.634 0 0 1-5.736 0L0 49.787V41.54l53.62-15.48a10.89 10.89 0 0 1 6.452.014z"/><path class="e" d="M97.282 74.535h-.006a1.883 1.883 0 0 1-1.876-1.89l.048-13.894a3.88 3.88 0 0 0-2.592-3.91L56.728 44.28a1.883 1.883 0 1 1 1.057-3.616L93.845 51.2a7.562 7.562 0 0 1 5.374 7.56l-.06 13.9a1.884 1.884 0 0 1-1.887 1.875z"/><path class="c" d="M104.33 93.445L99.12 76.08h-3.472l-5.21 17.365c-.48 1.78 1.626 3.472 3.474 3.472h6.946c1.84 0 3.933-1.698 3.47-3.472z"/><path class="e" d="M100.86 98.8h-6.947a5.856 5.856 0 0 1-4.5-2.24 4.084 4.084 0 0 1-.793-3.606l5.63-18.756h6.274l5.608 18.707a4.144 4.144 0 0 1-.8 3.67 5.865 5.865 0 0 1-4.473 2.224zm-3.81-20.84l-4.81 16.02a.81.81 0 0 0 .158.288 2.138 2.138 0 0 0 1.514.762h6.946a2.126 2.126 0 0 0 1.5-.762c.083-.11.175-.266.15-.35l-4.79-15.96z"/><path class="c" d="M102.593 72.606a5.21 5.21 0 1 1-5.19-5.207 5.18 5.18 0 0 1 5.19 5.2z"/><path class="d" d="M105.468 73.48a5.21 5.21 0 1 1-5.187-5.212 5.23 5.23 0 0 1 5.19 5.212z"/><path class="e" d="M97.368 79.7a7.064 7.064 0 0 1-7.074-7.1 7.13 7.13 0 0 1 7.11-7.085 7.067 7.067 0 0 1 7.073 7.1 7.12 7.12 0 0 1-7.11 7.084zm.037-10.418a3.355 3.355 0 0 0-3.345 3.335 3.3 3.3 0 0 0 3.308 3.314 3.35 3.35 0 0 0 3.343-3.33 3.3 3.3 0 0 0-3.3-3.31z"/><circle class="c" cx="33.108" cy="28.567" r="20.401"/><circle class="f" cx="35.698" cy="31.236" r="20.4"/><path class="e" d="M33.11 50.85a22.284 22.284 0 1 1 22.282-22.28A22.31 22.31 0 0 1 33.11 50.85zm0-40.8a18.517 18.517 0 1 0 18.515 18.52A18.542 18.542 0 0 0 33.11 10.05z"/><path class="e" d="M34.677 38.297h-3.14a5.025 5.025 0 0 1-5.018-5.02h3.76a1.26 1.26 0 0 0 1.25 1.257h3.14a1.26 1.26 0 0 0 1.256-1.258V32.4a1.25 1.25 0 0 0-.857-1.19l-5.12-1.71a5 5 0 0 1-3.433-4.762v-.88a5.023 5.023 0 0 1 5.017-5.02h3.14a5.022 5.022 0 0 1 5.02 5.02H35.93a1.258 1.258 0 0 0-1.256-1.255h-3.14a1.26 1.26 0 0 0-1.255 1.256v.87a1.25 1.25 0 0 0 .85 1.186l5.13 1.71a5.008 5.008 0 0 1 3.433 4.764v.877a5.025 5.025 0 0 1-5.025 5.02z"/><path class="e" d="M31.224 16.013h3.77v4.708h-3.77zm0 20.402h3.77v4.705h-3.77z"/></svg>
