<svg xmlns="http://www.w3.org/2000/svg" viewBox="0 0 104.779 104.784"><defs><style>.a{fill:#d9f3f0;}.b{fill:#fff;}.c{fill:#263b66;}.d{fill:#1ec5a9;}.e{fill:#bcc0c4;}</style></defs><circle class="a" cx="43.497" cy="42.432" r="42.433"/><path class="b" d="M13.335 34.908h89.54V84.44h-89.54z"/><path class="c" d="M104.78 86.345H11.43V33.002h93.35zm-89.54-3.81h85.73V36.81H15.24z"/><path class="d" d="M91.207 78.723H32.15a5.716 5.716 0 0 0-5.718-5.714V53.95a5.717 5.717 0 0 0 5.717-5.715H91.2a5.715 5.715 0 0 0 5.714 5.715V73a5.714 5.714 0 0 0-5.714 5.715z"/><path class="c" d="M89.54 76.82H26.67v-1.905a3.814 3.814 0 0 0-3.81-3.81h-1.903V48.242h1.9a3.815 3.815 0 0 0 3.81-3.81v-1.9h62.87v1.9a3.816 3.816 0 0 0 3.81 3.81h1.9v22.86h-1.9a3.815 3.815 0 0 0-3.81 3.812zm-59.3-3.81h55.732a7.645 7.645 0 0 1 5.475-5.475V51.81a7.647 7.647 0 0 1-5.475-5.472H30.238a7.644 7.644 0 0 1-5.474 5.473v15.73a7.642 7.642 0 0 1 5.474 5.48z"/><path class="c" d="M36.197 57.77h3.81v3.81h-3.81zm40.006 0h3.81v3.81h-3.81z"/><ellipse class="b" cx="58.106" cy="59.67" rx="8.574" ry="9.525"/><path class="c" d="M58.106 71.098H58.1a9.992 9.992 0 0 1-7.477-3.424 11.908 11.908 0 0 1-3-8.012c0-6.3 4.706-11.423 10.478-11.423a10.01 10.01 0 0 1 7.49 3.42 11.92 11.92 0 0 1 3 8.01c.005 6.292-4.696 11.42-10.473 11.42zm.006-19.05c-3.677 0-6.67 3.417-6.675 7.62a8.123 8.123 0 0 0 2.02 5.46 6.226 6.226 0 0 0 4.644 2.157v1.905-1.905c3.68 0 6.67-3.416 6.68-7.614a8.1 8.1 0 0 0-2.02-5.46 6.216 6.216 0 0 0-4.64-2.16z"/><path class="b" d="M15.24 17.76c7.366 0 13.335 2.56 13.335 5.716V80.63c0 3.156-5.97 5.715-13.336 5.715S1.9 83.785 1.9 80.63V23.475c0-3.157 5.97-5.715 13.334-5.715z"/><path class="c" d="M15.24 15.857C7.664 15.857 0 18.474 0 23.477V80.63c0 5 7.665 7.62 15.24 7.62s15.24-2.616 15.24-7.62V23.476c0-5.002-7.666-7.62-15.24-7.62zm0 3.81c7.09 0 11.43 2.467 11.43 3.81s-4.34 3.81-11.43 3.81-11.43-2.466-11.43-3.81 4.34-3.81 11.43-3.81zM3.81 66.785A25.1 25.1 0 0 0 15.24 69.2a25.107 25.107 0 0 0 11.43-2.415v4.32c0 1.343-4.34 3.81-11.43 3.81S3.81 72.45 3.81 71.105zM15.24 84.44c-7.09 0-11.43-2.467-11.43-3.81v-4.32a25.13 25.13 0 0 0 11.43 2.413 25.133 25.133 0 0 0 11.43-2.413v4.32c0 1.342-4.34 3.81-11.43 3.81zm0-19.052c-7.09 0-11.43-2.466-11.43-3.81v-4.32a25.08 25.08 0 0 0 11.43 2.418 25.082 25.082 0 0 0 11.43-2.417v4.32c0 1.34-4.34 3.8-11.43 3.8zm0-9.524c-7.09 0-11.43-2.466-11.43-3.81v-4.32a25.117 25.117 0 0 0 11.43 2.415 25.12 25.12 0 0 0 11.43-2.42v4.32c0 1.34-4.34 3.81-11.43 3.81zm0-9.525c-7.09 0-11.43-2.47-11.43-3.81v-4.32a25.122 25.122 0 0 0 11.43 2.41 25.126 25.126 0 0 0 11.43-2.42v4.32c0 1.34-4.34 3.806-11.43 3.806zm0-9.53c-7.09 0-11.43-2.47-11.43-3.81v-4.32a25.117 25.117 0 0 0 11.43 2.42 25.12 25.12 0 0 0 11.43-2.42V33c0 1.34-4.34 3.808-11.43 3.808z"/><path class="b" d="M36.196 71.104c7.366 0 13.335 2.56 13.335 5.716v19.05c0 3.158-5.96 5.716-13.33 5.716s-13.34-2.558-13.34-5.716V76.82c0-3.157 5.98-5.716 13.34-5.716z"/><path class="c" d="M36.196 69.2c-7.574 0-15.24 2.617-15.24 7.62v19.05c0 5 7.666 7.62 15.24 7.62s15.24-2.616 15.24-7.62V76.82c0-5.003-7.666-7.62-15.24-7.62zm0 3.81c7.09 0 11.432 2.467 11.432 3.81s-4.34 3.81-11.432 3.81-11.432-2.466-11.432-3.808 4.342-3.813 11.432-3.813zm0 26.672c-7.09 0-11.432-2.467-11.432-3.81v-4.32a25.144 25.144 0 0 0 11.432 2.414 25.143 25.143 0 0 0 11.432-2.413v4.318c0 1.35-4.34 3.82-11.432 3.82zm0-9.525c-7.09 0-11.432-2.467-11.432-3.81v-4.32a25.118 25.118 0 0 0 11.432 2.414 25.116 25.116 0 0 0 11.432-2.41v4.32c0 1.34-4.34 3.81-11.432 3.81z"/><path class="e" d="M46.45 12.772h3.565v10.69H46.45z"/><path class="e" d="M42.89 16.335h10.688v3.563H42.89zM5.48 96.345h2.813v8.44H5.48z"/><path class="e" d="M2.667 99.158h8.438v2.813H2.667zm71.19-81.36a7.126 7.126 0 1 1 7.127-7.125 7.132 7.132 0 0 1-7.127 7.125zm0-10.69a3.563 3.563 0 1 0 3.563 3.564 3.568 3.568 0 0 0-3.563-3.563z"/></svg>
