<svg xmlns="http://www.w3.org/2000/svg" viewBox="0 0 105.854 105.102"><defs><style>.a{fill:#d9f3f0;}.b{fill:#fff;}.c{fill:#bcc0c4;}.d{fill:#263b66;}.e{fill:#1ec5a9;}</style></defs><circle class="a" cx="62.857" cy="62.669" r="42.433"/><path class="b" d="M48.342 15.68l-12.115 2.53L20.72 30.612l-9.694 17.464-2.422 9.87 8.964-3.29L29.44 57.44l11.39-2.786 8.967 1.77 2.9 1.66 9.943-4.19 7.51 2.277 3.163 3.2 9.68-5.47 8.238 2.28 6.06 2.28-2.91-10.12-7.75-16.704-13.08-11.39-12.84-5.06-12.355.505z"/><path class="c" d="M51.083.043L54.563 0l.096 7.844-3.49.042zM35.527 2.796l2.088 7.55 3.35-.962-2.086-7.547-3.36.96zM21.204 9.56l3.932 6.74 2.993-1.81-3.94-6.74-2.99 1.81zM9.084 19.854l5.514 5.484 2.432-2.534-5.513-5.483-2.434 2.54zM0 33.004l6.72 3.837 1.7-3.09-6.72-3.83L0 33.01zm64.887-23.62l3.353.96 2.085-7.548-3.35-.96-2.088 7.548zm12.836 5.106l2.993 1.81 3.934-6.74-2.994-1.81-3.933 6.74zm11.1 8.314l2.43 2.534 5.517-5.484-2.435-2.533-5.512 5.49zm15.33 7.11l-6.72 3.833 1.703 3.094 6.718-3.83-1.702-3.09z"/><path class="d" d="M32.08 59.366h-2.807c0-26.957 15.71-45.632 23.423-45.632v2.93c-5.647 0-20.617 16.908-20.617 42.702z"/><path class="d" d="M32.563 59.872h-3.775v-.507c0-27.23 16.037-46.138 23.908-46.138h.486v3.942H52.7c-5.514 0-20.133 16.67-20.133 42.2zm-2.8-1.013h1.835c.19-25.15 14.548-41.55 20.614-42.66v-1.93c-7.656.92-22.263 18.68-22.452 44.59z"/><path class="d" d="M76.116 59.366h-2.8c0-25.794-14.97-42.7-20.617-42.7v-2.933c7.7 0 23.41 18.676 23.41 45.633z"/><path class="d" d="M76.6 59.872h-3.77v-.507c0-25.517-14.62-42.2-20.135-42.2h-.484v-3.938h.49c7.88 0 23.91 18.91 23.91 46.138zm-2.8-1.012h1.836c-.19-25.91-14.8-43.662-22.45-44.59v1.933c6.06 1.11 20.42 17.51 20.614 42.657z"/><path class="d" d="M7.256 62.814v-3.45c0-27.673 20.385-45.632 45.44-45.632s45.44 17.96 45.44 45.632v3.434L95.76 60.42c-.042-.043-4.613-4.56-10.036-4.56-5.45 0-9.99 4.514-10.035 4.56l-.98.98-.98-.98c-.043-.042-4.616-4.558-10.038-4.558-5.45 0-9.993 4.513-10.035 4.558l-.974.98-.975-.978c-.043-.043-4.615-4.56-10.036-4.56-5.45 0-9.993 4.514-10.036 4.56l-.97.98-.977-.98c-.043-.042-4.614-4.558-10.037-4.558-5.45 0-9.99 4.513-10.033 4.558zm56.444-9.88c4.99 0 9.185 2.974 11.01 4.5 1.826-1.528 6.02-4.5 11.01-4.5a17.087 17.087 0 0 1 9.52 3.36c-1.43-24.634-19.964-39.63-42.54-39.63s-41.115 15-42.547 39.63a17.09 17.09 0 0 1 9.518-3.36c4.99 0 9.19 2.974 11.01 4.5 1.83-1.528 6.03-4.5 11.02-4.5s9.187 2.974 11.01 4.5c1.82-1.526 6.017-4.5 11-4.5z"/><path class="d" d="M6.77 64.014v-4.648c0-27.953 20.6-46.138 45.926-46.138S98.62 31.414 98.62 59.366v4.62l-3.2-3.2c-.043-.043-4.505-4.42-9.7-4.42-5.263 0-9.65 4.37-9.7 4.414l-1.3 1.32-1.312-1.313c-.043-.043-4.506-4.42-9.7-4.42-5.264 0-9.654 4.37-9.7 4.414L52.7 62.1l-1.312-1.313c-.044-.043-4.505-4.42-9.7-4.42-5.263 0-9.654 4.37-9.7 4.414l-1.31 1.32-1.308-1.31c-.184-.18-4.595-4.42-9.7-4.42-5.218 0-9.656 4.38-9.7 4.42zM52.7 14.24c-24.79 0-44.956 17.73-44.956 45.126v2.258l1.553-1.57c.194-.19 4.76-4.7 10.372-4.7 5.4 0 9.87 4.21 10.36 4.69l.64.65.636-.643c.04-.04 4.66-4.7 10.372-4.7 5.6 0 10.322 4.66 10.37 4.7l.64.65.633-.64c.04-.04 4.66-4.7 10.374-4.7 5.605 0 10.326 4.65 10.374 4.7l.64.646.634-.642c.04-.04 4.66-4.7 10.374-4.7 5.6 0 10.326 4.653 10.374 4.7l1.555 1.56v-2.25c-.005-27.4-20.17-45.13-44.955-45.13zm22.014 43.845l-.3-.253c-1.58-1.318-5.78-4.39-10.714-4.39-4.748 0-8.744 2.748-10.707 4.39l-.3.254-.3-.253c-1.96-1.643-5.958-4.392-10.707-4.392s-8.748 2.75-10.708 4.4l-.3.258-.3-.253C28.418 56.2 24.42 53.45 19.67 53.45a16.616 16.616 0 0 0-9.25 3.274l-.815.57.058-1.022c1.458-25.04 20.36-40.1 43.033-40.1s41.574 15.063 43.03 40.1l.06 1.024-.813-.57a16.63 16.63 0 0 0-9.25-3.274c-4.748 0-8.746 2.75-10.706 4.393zm-55.048-5.657c4.81 0 8.858 2.625 11.01 4.364 2.15-1.74 6.2-4.364 11.01-4.364s8.86 2.625 11.01 4.364c2.153-1.74 6.2-4.364 11.01-4.364s8.858 2.625 11.01 4.364c2.15-1.74 6.2-4.364 11.01-4.364a17.02 17.02 0 0 1 8.968 2.893c-1.866-24.03-20.14-38.15-42-38.15s-40.133 14.12-42 38.15a17.023 17.023 0 0 1 8.972-2.89z"/><path class="b" d="M77.687 100.896s-18.653-9.463-18.653-23.812 14.098-13.27 18.653-5.07c4.468-8.444 18.43-9.163 18.43 5.183s-18.43 23.7-18.43 23.7z"/><path class="e" d="M79.43 104.383s-18.654-9.47-18.654-23.812 14.1-13.27 18.654-5.07c4.47-8.44 18.43-9.16 18.43 5.19s-18.43 23.7-18.43 23.7z"/><path class="d" d="M77.687 102.85l-.79-.4c-.8-.4-19.607-10.12-19.607-25.366 0-9.45 5.645-12.8 10.482-12.8a13.443 13.443 0 0 1 9.876 4.663 12.763 12.763 0 0 1 9.707-4.716c4.847 0 10.5 3.4 10.5 12.97 0 15.25-18.594 24.86-19.386 25.26zm-9.915-35.082c-4.382 0-7 3.482-7 9.315 0 11.51 13.47 19.88 16.91 21.826 3.406-1.94 16.688-10.25 16.688-21.72 0-5.94-2.628-9.48-7.02-9.48a9.543 9.543 0 0 0-8.13 5.11l-1.5 2.84-1.56-2.81a9.945 9.945 0 0 0-8.39-5.09z"/><path class="d" d="M63.114 77.393c-.024-3.2.582-4.855 2.4-6.54l1.89 2.043c-1.082 1-1.53 1.844-1.51 4.476zm.816 4.887a20.743 20.743 0 0 1-.62-2.646l2.746-.44a17.748 17.748 0 0 0 .535 2.283zm-18.088 22.292a8.314 8.314 0 0 1-8.305-8.3h2.93a5.378 5.378 0 0 0 10.755 0V10.975h2.927V96.27a8.315 8.315 0 0 1-8.31 8.302z"/><path class="d" d="M45.842 105.078a8.82 8.82 0 0 1-8.81-8.81v-.505h3.94v.506a4.87 4.87 0 0 0 9.743 0v-85.8h3.94v85.8a8.82 8.82 0 0 1-8.813 8.8zm-7.783-8.3a7.8 7.8 0 0 0 15.58-.5V11.482h-1.92V96.27a5.883 5.883 0 0 1-11.75.5z"/></svg>
