<svg xmlns="http://www.w3.org/2000/svg" viewBox="0 0 114.993 104.765"><defs><style>.a{fill:#d9f3f0;}.b{fill:#fff;}.c{fill:#e9eaeb;}.d{fill:#1ec5a9;}.e{fill:#bcc0c4;}.f{fill:#2a5082;}.g{fill:#263b66;}</style></defs><circle class="a" cx="49.831" cy="49.911" r="49.831"/><circle class="b" cx="103.2" cy="68.733" r="22.175" transform="rotate(-42.135 70.028 77.442)"/><path class="b" d="M51.31 34.552l36.894 36.894 7.38-7.378L51.31 19.794 7.034 64.068l7.38 7.378 36.893-36.894z"/><path class="b" d="M22.758 23.597h11.068v22.137H22.758z"/><path class="b" d="M87.322 102.92H13.534V63.238c16.602-14.29 23.46-23.04 37.75-37.795h.33c14.29 14.757 22.8 23.505 35.71 37.795z"/><path class="c" d="M53 36.703l36.895 36.894 7.378-7.378L53 21.94 8.73 66.22l7.378 7.377L53 36.703zm-21.48 42.7h14.142v23.98H31.52z"/><path class="b" d="M56.117 75.25H72.72v14.758H56.117z"/><circle class="d" cx="104.737" cy="72.114" r="22.174" transform="rotate(-42.135 71.565 80.823)"/><path class="e" d="M52.274 13.685h-9.426l-.01-1.832c-.04-5.435-3.867-6.246-6.144-6.246A6.008 6.008 0 0 0 31.4 8.54l-.608 1.05-1.208-.144c-2.8-.34-4.28.533-5.135 3l-.43 1.24H11.69v-3.69h9.794a7.41 7.41 0 0 1 7.39-4.3 9.716 9.716 0 0 1 7.82-3.776c5.3 0 8.95 3.113 9.693 8.078h5.887zm31.36 4.88h23.98v3.69h-23.98zm-7.38 0h3.69v3.69h-3.69zm-7.378 0h3.69v3.69h-3.69zM4.31 9.995H8v3.69H4.31zm110.683 3.69h-16.74v-1.84c-.007-2.756-3.772-8.155-8.3-8.155a8.41 8.41 0 0 0-7.77 5.534l-.662 1.767-1.75-.7a4.43 4.43 0 0 0-1.63-.35 5.012 5.012 0 0 0-4.11 2.75l-.515 1H65.19V10h6.163a8.434 8.434 0 0 1 8.09-3.627A12.063 12.063 0 0 1 89.95-.003c5.778 0 10.62 5.49 11.745 9.995h13.3zm-57.186-3.69h3.69v3.69h-3.69z"/><path class="f" d="M87.938 69.71a21.122 21.122 0 0 1-3.557-.325l2.94 2.94 2.73-2.725c-.69.07-1.393.11-2.103.11z"/><path class="g" d="M54.273 91.853h20.292V73.405H54.273zm3.69-14.756h12.912v11.067H57.962zM.62 101.077h3.69v3.69H.62zm108.84 0h5.533v3.69h-5.533zM85.442 41.024h3.688a1.847 1.847 0 0 1 1.845 1.845h3.69a5.54 5.54 0 0 0-5.535-5.54v-3.69h-3.688v3.69a5.54 5.54 0 0 0-5.535 5.533v1.026a5.522 5.522 0 0 0 3.783 5.25l6.02 2.004a1.847 1.847 0 0 1 1.265 1.755v1.03a1.847 1.847 0 0 1-1.845 1.846h-3.688a1.845 1.845 0 0 1-1.845-1.845h-3.69a5.542 5.542 0 0 0 5.535 5.536v3.69h3.688V59.47a5.542 5.542 0 0 0 5.535-5.534v-1.03a5.537 5.537 0 0 0-3.783-5.255l-6.028-2.002a1.838 1.838 0 0 1-1.256-1.755v-1.03a1.845 1.845 0 0 1 1.844-1.84z"/><path class="g" d="M89.167 71.49a23.51 23.51 0 0 0-1.23-46.966 23.074 23.074 0 0 0-18.74 9.7l-18.77-18.768L35.67 30.212v-8.46H20.915v23.22L3.545 62.335l8.144 8.144v30.6H8v3.69h99.614v-3.69H89.167zM24.603 25.442h7.38v8.455l-7.378 7.38zM8.763 62.336L50.43 20.672l16.8 16.8a23.415 23.415 0 0 0-2.25 7.29l-14.55-14.55-36.894 36.895zm32.287 38.74H29.984v-23.98H41.05zm44.428 0h-40.74v-27.67H26.293v27.67H15.378v-30.6l35.05-35.05 14.384 14.388a23.406 23.406 0 0 0 20.666 21.6zm2.46-33.213a19.827 19.827 0 1 1 19.525-19.826 19.7 19.7 0 0 1-19.525 19.826z"/></svg>
