<svg xmlns="http://www.w3.org/2000/svg" viewBox="0 0 126.546 104.776"><defs><style>.a{fill:#d9f3f0;}.b{fill:#263b66;}.c{fill:#1ec5a9;}.d{fill:#fff;}.e{fill:#bcc0c4;}</style></defs><circle class="a" cx="50.604" cy="77.017" r="41.758" transform="rotate(-54.887 26.66 75.393)"/><path class="b" d="M28.755 101.222h84.402v3.554H28.755zm-13.33 0h3.555v3.554h-3.554zm6.59 0h3.555v3.554h-3.554zm92.585 0h5.332v3.554H114.6z"/><ellipse class="c" cx="70.366" cy="27.063" rx="17.89" ry="18.144"/><path class="b" d="M67.108 44.02A19.923 19.923 0 1 1 86.776 24.1a19.818 19.818 0 0 1-19.668 19.92zm0-36.288a16.37 16.37 0 1 0 16.113 16.37A16.26 16.26 0 0 0 67.11 7.73z"/><path class="b" d="M67.656 31.242h-2.2a3.54 3.54 0 0 1-3.534-3.535h2.664a.87.87 0 0 0 .87.87h2.2a.87.87 0 0 0 .868-.87v-.614a.865.865 0 0 0-.594-.822l-3.594-1.2a3.53 3.53 0 0 1-2.408-3.35v-.61a3.537 3.537 0 0 1 3.534-3.53h2.2a3.537 3.537 0 0 1 3.535 3.54H68.53a.87.87 0 0 0-.87-.87h-2.2a.868.868 0 0 0-.868.87v.616a.866.866 0 0 0 .592.824l3.594 1.2a3.53 3.53 0 0 1 2.418 3.35v.614a3.54 3.54 0 0 1-3.54 3.53z"/><path class="b" d="M65.23 15.605h2.663v3.3H65.23zm0 14.305h2.663v3.3H65.23z"/><path class="d" d="M65.167 37.014a44.722 44.722 0 0 0-20.16 4.83l.038 3.136c-4-5.74-14.47-8.514-15.906-6.725-1.03 1.275 2.18 6.82 4.37 10.585a20.7 20.7 0 0 0-7.28 8.688 18.17 18.17 0 0 1-7.88 1.34c-3.06-.02-2.238 8.36.57 13.66C21.5 77.36 37.932 87.32 39.71 87.7v14.56h8.864l3.464-8.08c4.08 1.243 9.7 2.748 14.325 2.748 5.13 0 11.148-1.677 16.182-3.19l3.24 8.52h8.582l2.117-16.647c5.443-5.14 8.734-11.78 8.734-19.04 0-16.32-19.63-29.55-40.05-29.55z"/><path class="b" d="M95.932 104.035h-11.37l-3.09-8.125c-5.155 1.5-10.458 2.794-15.108 2.794a51.13 51.13 0 0 1-13.315-2.368l-3.3 7.7H37.93v-15.17c-4.724-2.3-18.06-10.775-20.568-15.5-2.355-4.445-3.7-11.53-1.855-14.592a3.244 3.244 0 0 1 2.845-1.682h.25a17.51 17.51 0 0 0 6.32-.936 22.5 22.5 0 0 1 6.253-7.81c-3.638-6.35-4.875-9.4-3.426-11.206a3.96 3.96 0 0 1 3.25-1.2c3.09 0 8.4 1.67 12.34 4.76l.84-.435a46.71 46.71 0 0 1 20.97-5.025c22.28 0 41.83 14.64 41.83 31.325 0 7.255-3.13 14.3-8.83 19.894zm-8.922-3.554h5.79l2-15.72.462-.43c5.273-4.98 8.178-11.29 8.178-17.75 0-14.795-17.885-27.772-38.275-27.772a43.227 43.227 0 0 0-18.37 4.15l.095 7.8-3.3-4.74c-2.724-3.91-9.377-6.5-12.583-6.5h-.217c.47 1.93 3.176 6.58 4.264 8.45l.838 1.44-1.383.927a18.87 18.87 0 0 0-6.65 7.943l-.27.605-.6.278a19.652 19.652 0 0 1-8.38 1.5h-.1c-.74 1.16-.33 6.677 1.99 11.05 2.18 4.116 17.45 13.61 19.62 14.28l1.25.387.1 1.34v12.78h5.92l3.63-8.465 1.522.464c2.17.662 8.77 2.67 13.807 2.67 4.67 0 10.29-1.5 15.67-3.113l1.59-.474z"/><circle class="d" cx="41.04" cy="60.948" r="4.887"/><path class="b" d="M41.485 67.168a6.665 6.665 0 1 1 6.665-6.665 6.673 6.673 0 0 1-6.667 6.665zm0-9.776a3.11 3.11 0 1 0 3.11 3.11 3.114 3.114 0 0 0-3.11-3.11z"/><path class="e" d="M41.488 8.08h3.554v10.662h-3.554z"/><path class="e" d="M37.934 11.634h10.662v3.554H37.934zm62.192 17.77h3.555v10.66h-3.55z"/><path class="e" d="M96.573 32.957h10.662v3.554H96.573zM95.093 14.3a7.107 7.107 0 1 1 7.107-7.11 7.114 7.114 0 0 1-7.11 7.11zm0-10.662a3.554 3.554 0 1 0 3.554 3.554 3.56 3.56 0 0 0-3.555-3.554z"/><path class="b" d="M114.235 72.94a6.312 6.312 0 0 1-5.754-3.83c-1.21-2.724.04-6.145 2.82-8.312a5.55 5.55 0 0 0-5.63 1.957l-2.77-2.228a9.214 9.214 0 0 1 10.42-2.855 11.2 11.2 0 0 1 2.49 1.2c3.49-.447 7.64 1.1 10.74 6.767l-3.12 1.7a10.46 10.46 0 0 0-3.97-4.36 8.41 8.41 0 0 1 .81 3.41 6.048 6.048 0 0 1-4.66 6.38 6.232 6.232 0 0 1-1.36.16zm.725-10.2c-.13.055-.262.113-.393.178-2.123 1.052-3.476 3.313-2.84 4.744a2.716 2.716 0 0 0 3.1 1.657c.58-.13 1.932-.67 1.885-2.85a5.49 5.49 0 0 0-1.756-3.74zM64.59 0h3.552v3.554H64.59zm10.66 1.922h3.554v17.404H75.25z"/></svg>
