<svg xmlns="http://www.w3.org/2000/svg" viewBox="0 0 113.934 98.025"><defs><style>.a{fill:#d9f3f0;}.b,.f{fill:#fff;}.b{fill-rule:evenodd;}.c{fill:#e9eaeb;}.d{fill:#263b66;}.e{fill:#bcc0c4;}.g{fill:#1ec5a9;}</style></defs><circle class="a" cx="47.379" cy="42.433" r="42.433"/><path class="b" d="M92.757 30.377l1.46 11 6.795-1.095.235 9.434 1.414 46.93-85.132-1.65-1.18-46.46 2.465-18.82"/><path class="c" d="M25.26 39.538h-3.773a5.563 5.563 0 0 1-5.66-5.66v56.6a5.562 5.562 0 0 0 5.66 5.66h3.773z"/><path class="d" d="M87.52 3.69h3.772v11.32h-3.77zm7.39 11.546l4.91-8.506 3.268 1.886-4.91 8.506zm6.232 4.854l8.503-4.915 1.888 3.266-8.504 4.917zm3.358 8.128h9.434v3.774H104.5z"/><path class="e" d="M15.316 19.937a6.594 6.594 0 1 1 6.593-6.6 6.6 6.6 0 0 1-6.596 6.6zm0-10.262a3.668 3.668 0 1 0 3.667 3.667 3.673 3.673 0 0 0-3.667-3.667zm22.48-1.945h3.415v10.24H37.8z"/><path class="e" d="M34.384 11.144h10.24v3.414h-10.24z"/><path class="c" d="M15.826 33.878a5.558 5.558 0 0 0 5.653 5.66h71.7v-11.32h-71.7a5.56 5.56 0 0 0-5.656 5.66z"/><path class="d" d="M95.066 39.538h-3.773v-9.436H21.48a3.688 3.688 0 0 0-3.768 3.773H13.94a7.462 7.462 0 0 1 7.54-7.546h73.587z"/><path class="f" d="M83.915 39.538L57.348 12.962 30.666 39.538"/><path class="g" d="M86.274 43.548L59.704 16.97l-26.68 26.58"/><path class="d" d="M31.998 40.876L29.334 38.2 57.35 10.296l27.9 27.91-2.668 2.666-25.24-25.243L32 40.873z"/><path class="c" d="M70.54 39.538l-9.19-9.236q-4 4-8 0l-9.232 9.234"/><path class="d" d="M45.45 40.872l-2.672-2.67 10.568-10.565 1.334 1.333c1.914 1.913 3.41 1.92 5.334 0l1.34-1.34 10.524 10.58-2.676 2.658-7.962-8.01a6.39 6.39 0 0 1-7.777 0z"/><path class="d" d="M104.5 98.025H21.487a7.465 7.465 0 0 1-7.547-7.547v-56.6h3.774a3.69 3.69 0 0 0 3.774 3.774H104.5zm-86.787-57.58V90.48a3.69 3.69 0 0 0 3.774 3.772h79.24V41.425h-79.24a7.612 7.612 0 0 1-3.774-.98z"/><path class="f" d="M104.5 77.273H77.14a10.38 10.38 0 0 1-10.374-10.378A10.38 10.38 0 0 1 77.14 56.52h27.36a3.772 3.772 0 0 1 3.773 3.772v13.21a3.774 3.774 0 0 1-3.773 3.77z"/><path class="g" d="M107.566 80.338H80.21a10.38 10.38 0 0 1-10.378-10.376A10.38 10.38 0 0 1 80.21 59.584h27.356a3.775 3.775 0 0 1 3.773 3.773v13.207a3.773 3.773 0 0 1-3.776 3.774z"/><path class="d" d="M104.5 79.16H77.14a12.263 12.263 0 0 1 0-24.527h27.36a5.666 5.666 0 0 1 5.66 5.66v13.21a5.666 5.666 0 0 1-5.66 5.656zM77.14 58.4a8.49 8.49 0 0 0 0 16.98h27.36a1.888 1.888 0 0 0 1.887-1.885V60.293a1.888 1.888 0 0 0-1.887-1.89z"/><circle class="f" cx="79.03" cy="66.896" r="4.717"/><path class="d" d="M79.03 73.502a6.6 6.6 0 1 1 6.6-6.6 6.61 6.61 0 0 1-6.6 6.6zm0-9.435a2.83 2.83 0 1 0 2.83 2.83 2.83 2.83 0 0 0-2.83-2.832z"/><path class="e" d="M10.24 41.705H6.827v-3.413H3.414v3.413H0v3.413h3.414v3.414h3.413v-3.414h3.413v-3.413z"/></svg>
